<svg id="Capa_1" data-name="Capa 1" xmlns="http://www.w3.org/2000/svg" viewBox="0 0 40 40"><defs><style>.cls-1{fill:#a6a6a6;}.cls-2{fill:#fefefe;}</style></defs><circle class="cls-1" cx="20" cy="20" r="20"/><path class="cls-2" d="M164.56,269.39a5.79,5.79,0,0,1-1.81-.66,6.44,6.44,0,0,1-3-3.63,5.33,5.33,0,0,1-.28-1.43c-.12-2.62-.23-5.25-.16-7.88,0-1.54.07-3.08.22-4.61a5.29,5.29,0,0,1,.85-2.4l.06-.07,0-.06,0-.06a6.36,6.36,0,0,1,2.12-2,5.87,5.87,0,0,1,2.91-.86c2.81-.16,5.62-.19,8.44-.13,1.21,0,2.43.06,3.64.17a6.11,6.11,0,0,1,4.58,2.74,6,6,0,0,1,1.08,3.13,91,91,0,0,1,.12,9.63,18.36,18.36,0,0,1-.22,3.14,6.32,6.32,0,0,1-4.14,4.77,6.78,6.78,0,0,1-2.14.37c-2.95.17-5.89.15-8.84.12-.84,0-1.67-.08-2.51-.12h-.34a.7.7,0,0,1-.38,0C164.76,269.33,164.65,269.39,164.56,269.39Zm-4.31-11.19.06-.06.06-.06.06-.06.06-.06.06-.06.06-.06.06-.07,0,0,0,0-.06.06-.06.06-.07.06-.06.06-.06.06-.06.06-.06.06,0,0Zm.6-.62,0,0,0,0,.06-.06c.1.13,0,.27.05.41a10.56,10.56,0,0,0,.05,1.59v.13h0s0,0,0,.05c0,1.16.11,2.32.15,3.48a4.57,4.57,0,0,0,.49,2,4.48,4.48,0,0,0,3.36,2.47,33.21,33.21,0,0,0,4.23.22c2.45.09,4.9,0,7.35-.1a5.19,5.19,0,0,0,2.77-.72,4.46,4.46,0,0,0,2.09-3,23.6,23.6,0,0,0,.23-3.66c.06-2.43.07-4.87-.07-7.29a9.36,9.36,0,0,0-.29-2.53,4.63,4.63,0,0,0-3.82-3.11c-1.34-.12-2.69-.14-4-.17-2.75-.06-5.49,0-8.23.16a4.33,4.33,0,0,0-2.46,1.1,5,5,0,0,0-1.1,1.33h0l-.07,0,0,0,.08,0a.11.11,0,0,0,0,.05,6.49,6.49,0,0,0-.51,2.72q-.07,1.5-.12,3a1.94,1.94,0,0,0-.05.68,5.25,5.25,0,0,1-.06,1.19Zm.45-8h0s0,0,0,0h0Zm.17.2h0v0l0,0Zm-.33-.32h0v0Zm-.45-.48a0,0,0,0,0,0,0h0v0Zm-.12-.12v0h0v0Z" transform="translate(-151.35 -237.53)"/><path class="cls-1" d="M161,255.65q0-1.5.12-3a6.49,6.49,0,0,1,.51-2.72l0-.06a5,5,0,0,1,1.1-1.33,4.33,4.33,0,0,1,2.46-1.1c2.74-.18,5.48-.22,8.23-.16,1.34,0,2.69.05,4,.17a4.63,4.63,0,0,1,3.82,3.11,9.36,9.36,0,0,1,.29,2.53c.14,2.42.13,4.86.07,7.29a23.6,23.6,0,0,1-.23,3.66,4.46,4.46,0,0,1-2.09,3,5.19,5.19,0,0,1-2.77.72c-2.45.1-4.9.19-7.35.1a33.21,33.21,0,0,1-4.23-.22,4.48,4.48,0,0,1-3.36-2.47,4.57,4.57,0,0,1-.49-2c0-1.16-.1-2.32-.15-3.48v-4.07Zm11.33,8.08a4.18,4.18,0,0,0,1.2-.32.91.91,0,0,0,.5-.22,4.46,4.46,0,0,0,1.32-.85,6.24,6.24,0,0,0-4.56-11,5.92,5.92,0,0,0-4.62,2.79,6,6,0,0,0-.68,5.48,6.2,6.2,0,0,0,6.34,4.14C172,263.77,172.19,263.84,172.35,263.73ZM178,252.37a1.38,1.38,0,0,0,1.38-1.34,1.36,1.36,0,1,0-1.38,1.34Z" transform="translate(-151.35 -237.53)"/><path class="cls-2" d="M178,252.37a1.37,1.37,0,1,1,1.38-1.34A1.38,1.38,0,0,1,178,252.37Z" transform="translate(-151.35 -237.53)"/><path class="cls-2" d="M174,262.92l-1,.4a7,7,0,0,1-2.78,0,6,6,0,0,1-1-11.32,5.94,5.94,0,0,1,8,4.35,7,7,0,0,1-.08,2.78,1.16,1.16,0,0,0-.14.48l0,.05h0v0l-.06.23a1.21,1.21,0,0,0-.22.42l-.09.16-1,1.36-.88.67c-.13.05-.27.07-.34.21A.62.62,0,0,0,174,262.92Z" transform="translate(-151.35 -237.53)"/><path class="cls-1" d="M173.21,261.44l-.76.28a5.12,5.12,0,0,1-2,0,4.27,4.27,0,0,1-.69-8.11,4.26,4.26,0,0,1,5.75,3.12,4.94,4.94,0,0,1-.07,2,.82.82,0,0,0-.09.34s0,0,0,0h0v0l0,.16a.87.87,0,0,0-.16.3l-.06.11-.75,1-.63.47c-.09,0-.19.06-.24.16A.37.37,0,0,0,173.21,261.44Z" transform="translate(-151.35 -237.53)"/></svg>