<svg id="Capa_1" data-name="Capa 1" xmlns="http://www.w3.org/2000/svg" viewBox="0 0 80 80"><defs><style>.cls-1{fill:#a5a5a5;}</style></defs><path class="cls-1" d="M300.47,255.7a23.25,23.25,0,0,1-3.33,4.08,21.13,21.13,0,0,1-7.24,4.51,20,20,0,0,1-8.4,1.18,19.18,19.18,0,0,1-7.08-1.8,22.58,22.58,0,0,1-4.84-3,21,21,0,0,1-4.8-5.64,18.77,18.77,0,0,1-2.48-6.75,15,15,0,0,1-.2-2.32q0-18.3,0-36.6a1.49,1.49,0,0,1,.46-1.12c1-1.07,2-2.05,3-3.08.11-.11.21-.3.39-.23s.12.28.12.43c0,2.3,0,4.61,0,6.91-.19,10.63,0,21.26-.09,31.89a18.16,18.16,0,0,0,1.43,7.57,17.68,17.68,0,0,0,3,4.64,16.83,16.83,0,0,0,5.69,4.2,15.84,15.84,0,0,0,4.73,1.35,16.21,16.21,0,0,0,6.75-.56,16.75,16.75,0,0,0,5.39-2.82,17.73,17.73,0,0,0,6-8.26,16.3,16.3,0,0,0,.86-6.71,16.65,16.65,0,0,0-3.77-9.34,17.13,17.13,0,0,0-7.73-5.4,16.91,16.91,0,0,0-4.13-.83,19.63,19.63,0,0,0-5.41.48c-.31,0-.43,0-.51-.29a27.64,27.64,0,0,0-1-2.8c-.13-.34,0-.45.27-.54a18.12,18.12,0,0,1,2.41-.51,20.31,20.31,0,0,1,4.54-.17,19.32,19.32,0,0,1,6.35,1.5,20.9,20.9,0,0,1,7.47,5.25,21.41,21.41,0,0,1,3.82,6s0,0,.07.08c.18-.06.16-.26.22-.39a23.1,23.1,0,0,1,3.13-4.75,21.4,21.4,0,0,1,6.68-5.24,20.15,20.15,0,0,1,6.44-2,23.41,23.41,0,0,1,4.18-.14,18.89,18.89,0,0,1,6.93,1.71,20.76,20.76,0,0,1,4.72,2.89,21.48,21.48,0,0,1,4.84,5.65,19.77,19.77,0,0,1,2.56,6.87,21,21,0,0,1,.26,4.76,21.42,21.42,0,0,1-1,5.28,20,20,0,0,1-4,7,20.53,20.53,0,0,1-12.27,6.86,23.17,23.17,0,0,1-5.06.22,18.48,18.48,0,0,1-3.82-.58c-.38-.1-.45-.23-.29-.62.36-.89.68-1.8,1-2.72.12-.39.29-.47.66-.35a13.41,13.41,0,0,0,4.12.58,16.44,16.44,0,0,0,10.24-3.58,17.49,17.49,0,0,0,5.67-7.85,16.24,16.24,0,0,0,.84-7.13,16.44,16.44,0,0,0-1.78-6,17.57,17.57,0,0,0-7.27-7.49,15.7,15.7,0,0,0-6.17-1.95,16.24,16.24,0,0,0-10.2,2.34,15.92,15.92,0,0,0-3.38,2.67,17.29,17.29,0,0,0-4.74,9.65,18.66,18.66,0,0,0-.17,2.79v38.85c0,.23.12.55-.12.65s-.38-.23-.54-.39c-1-1-2-2-3-3a1,1,0,0,1-.24-.77V256.26A.89.89,0,0,0,300.47,255.7Z" transform="translate(-262.08 -204.89)"/></svg>