<svg id="Capa_1" data-name="Capa 1" xmlns="http://www.w3.org/2000/svg" viewBox="0 0 40 40"><defs><style>.cls-1{fill:#a6a6a6;}.cls-2{fill:#fff;}</style></defs><circle class="cls-1" cx="20" cy="20" r="20"/><g id="g4"><path id="path2" class="cls-2" d="M302.07,512.18a8.21,8.21,0,0,1-2.39.66,4.19,4.19,0,0,0,1.83-2.3,8.51,8.51,0,0,1-2.64,1,4.15,4.15,0,0,0-7.19,2.84,4.26,4.26,0,0,0,.11,1,11.81,11.81,0,0,1-8.57-4.35,4.24,4.24,0,0,0-.56,2.09,4.13,4.13,0,0,0,1.85,3.46,4.13,4.13,0,0,1-1.88-.52v.06a4.15,4.15,0,0,0,3.33,4.07,4,4,0,0,1-1.09.15,4.15,4.15,0,0,1-.79-.08,4.17,4.17,0,0,0,3.89,2.89,8.34,8.34,0,0,1-5.17,1.78,8.22,8.22,0,0,1-1-.06,11.82,11.82,0,0,0,18.2-10c0-.18,0-.36,0-.53a8.63,8.63,0,0,0,2.07-2.15Z" transform="translate(-271.88 -497.69)"/></g></svg>