<svg id="Capa_1" data-name="Capa 1" xmlns="http://www.w3.org/2000/svg" viewBox="0 0 70 70"><defs><style>.cls-1{fill:#fff;}.cls-2{fill:#373738;}</style></defs><path class="cls-1" d="M290.92,414.35a34.85,34.85,0,0,1-37.1,1.82l-18,4.77,4.91-17.83a34.84,34.84,0,1,1,50.23,11.24Z" transform="translate(-235.78 -350.94)"/><path class="cls-2" d="M244.39,412.75c.22-.82.43-1.6.65-2.38.73-2.68,1.47-5.36,2.19-8a.46.46,0,0,0-.06-.34,34.31,34.31,0,0,1-2.69-4.95,28.8,28.8,0,0,1-2.22-13.15,28.28,28.28,0,0,1,4.46-13.54A28.68,28.68,0,0,1,257,360.68a28.6,28.6,0,0,1,12.16-3.56,27.64,27.64,0,0,1,5.53.18A28.3,28.3,0,0,1,288.42,363a28.73,28.73,0,0,1,6,6.19A28.1,28.1,0,0,1,299,379.59a28.57,28.57,0,0,1,.65,7.43,28,28,0,0,1-2.36,10.24,28.85,28.85,0,0,1-7.06,9.81A28.56,28.56,0,0,1,279,413.39a28.06,28.06,0,0,1-4.81,1,27.56,27.56,0,0,1-4.72.15,28.36,28.36,0,0,1-8.15-1.62,29.38,29.38,0,0,1-5.83-2.84A.55.55,0,0,0,255,410l-10.41,2.73Z" transform="translate(-235.78 -350.94)"/><path class="cls-1" d="M259.61,369.82h-.85a2.81,2.81,0,0,0-1.85.65,11.43,11.43,0,0,0-1.24,1.27,9.54,9.54,0,0,0-2.15,7.91,13.13,13.13,0,0,0,1.21,3.76,25.87,25.87,0,0,0,2.23,3.71,54.74,54.74,0,0,0,3.41,4.46,37.17,37.17,0,0,0,5.21,5,25.4,25.4,0,0,0,6.86,3.83,36,36,0,0,0,6.26,1.86,9.92,9.92,0,0,0,3.8-.1,9.13,9.13,0,0,0,3.21-1.56,5.45,5.45,0,0,0,2.42-3.32,11.32,11.32,0,0,0,.34-2.72,1,1,0,0,0-.52-.88l-.47-.26c-1.54-.75-3.08-1.52-4.64-2.25-.8-.38-1.61-.75-2.44-1.06a1.15,1.15,0,0,0-1.51.51q-1.38,1.75-2.81,3.48a1.1,1.1,0,0,1-1.33.36c-.44-.16-.86-.36-1.29-.55A22.5,22.5,0,0,1,267.3,390a22,22,0,0,1-3.16-3.51c-.56-.79-1.09-1.61-1.61-2.42a1.16,1.16,0,0,1,.13-1.62c.22-.25.46-.48.67-.73a10.24,10.24,0,0,0,1.67-2.35,1.72,1.72,0,0,0,0-1.42c-.76-1.82-1.5-3.65-2.27-5.47-.25-.59-.52-1.18-.83-1.75a1.5,1.5,0,0,0-1.25-.83C260.33,369.84,260,369.83,259.61,369.82Z" transform="translate(-235.78 -350.94)"/></svg>